ply
format ascii 1.0
element vertex 30
property float x
property float y
property float z
property uchar red
property uchar green
property uchar blue
end_header
0.05797440558671951 0.14713314175605774 1.2468178272247314 204 204 255
0.17055700719356537 0.1678239107131958 1.1040056943893433 204 204 255
-0.2610108554363251 0.25775453448295593 1.122434139251709 204 204 255
-0.23138631880283356 0.2523301839828491 0.9950151443481445 204 204 255
0.17256014049053192 -0.09271495789289474 1.1463401317596436 204 204 255
0.10714776068925858 0.20207221806049347 1.1811937093734741 204 204 255
0.2007301151752472 0.0001964055554708466 1.094408631324768 204 204 255
0.2698933184146881 -0.3113333582878113 1.0658042430877686 204 204 255
-0.0652313306927681 0.21797622740268707 1.2187749147415161 204 204 255
-0.2662433385848999 0.2533911466598511 1.123916745185852 204 204 255
0.19000793993473053 0.004343296866863966 1.1102375984191895 204 204 255
-0.06787586957216263 0.24206848442554474 1.2187141180038452 204 204 255
0.09923050552606583 0.2247818559408188 1.1737349033355713 204 204 255
-0.04196082428097725 0.10408059507608414 1.235467553138733 204 204 255
-0.06738001853227615 -0.2561388313770294 1.3010621070861816 204 204 255
-0.0687408447265625 0.23262621462345123 1.2183122634887695 204 204 255
0.3082955777645111 -0.12811897695064545 0.986248791217804 204 204 255
-0.0673099085688591 -0.2554902732372284 1.3014802932739258 204 204 255
-0.0761629119515419 0.03671155497431755 1.2601991891860962 204 204 255
0.304166316986084 -0.1443053036928177 0.994968831539154 204 204 255
0.21316392719745636 0.21024414896965027 1.0479737520217896 204 204 255
-0.07566097378730774 0.0004951938753947616 1.2678065299987793 204 204 255
0.24786506593227386 -0.09167151153087616 1.0566478967666626 204 204 255
-0.08966799825429916 -0.10703340172767639 1.3044285774230957 204 204 255
-0.05498534440994263 0.09757586568593979 1.2367537021636963 204 204 255
-0.06561724841594696 0.218486025929451 1.2179443836212158 204 204 255
0.16960619390010834 0.11924723535776138 1.1080633401870728 204 204 255
-0.022853145375847816 0.0691976472735405 1.2448194026947021 204 204 255
-0.06753165274858475 0.2330324649810791 1.2203938961029053 204 204 255
-0.0560438372194767 -0.2669491767883301 1.3034394979476929 204 204 255
